<svg version="1.1" xmlns="http://www.w3.org/2000/svg" viewBox="-2.475001 -3.414571232899676 4.950002000000001 7.134831918417126" fill="none" stroke="black" stroke-width="0.6%" vector-effect="non-scaling-stroke">
    <path d="M 1.075 0.27944 A 1.475 1.12723 360 0 1 1.475 1.05127 A 1.475 1.12723 360 0 1 -1.475 1.05127 A 1.475 1.12723 360 0 1 -1.075 0.27944" />
    <path d="M -1.475 1.59303 A 1.475 1.12723 180 0 0 1.475 1.59303" />
    <path d="M 1.075 1.05127 A 1.075 0.82154 360 0 1 -1.075 1.05127" />
    <path d="M -0.75737 -2.17605 A 1.075 0.82154 360 0 1 1.075 -1.59303 L 1.075 1.05127" />
    <path d="M 1.075 -1.59303 A 1.075 0.82154 360 0 1 -1.075 -1.59303 L -1.075 1.05127" />
    <path d="M -1.075 -1.59303 A 1.075 0.82154 360 0 1 -0.75737 -2.17605" />
    <path d="M -1.475 1.05127 L -1.475 1.59303" />
    <path d="M 1.475 1.05127 L 1.475 1.59303" />
</svg>