<svg version="1.1" xmlns="http://www.w3.org/2000/svg" viewBox="-4.798526456352482 -7.563633925558437 9.597052912704966 18.076707788040302" fill="none" stroke="black" stroke-width="0.6%" vector-effect="non-scaling-stroke">
    <path d="M -0.78014 -6.42799 A 2.05 1.80277 360 0 1 2.05 -4.76087 A 2.05 1.80277 360 0 1 -2.05 -4.76087 A 2.05 1.80277 360 0 1 -0.78014 -6.42799 Z" />
    <path d="M -1.89576 0.68605 A 2.05 1.80277 360 0 1 -2.05 0" />
    <path d="M -1.89576 0.68605 A 2.05 1.80277 180 0 0 2.05 0" />
    <path d="M -2.05 -4.01288 L -3.79853 -3.38011 L -1.89576 0.68605 L 0.00701 4.75221 L 3.79853 3.38011 L 2.05 -0.35643" />
    <path d="M -3.79853 1.38076 L -3.79853 -3.38011" />
    <path d="M 3.79853 8.14097 L 3.79853 3.38011" />
    <path d="M 0.00701 9.51307 L 0.00701 4.75221" />
    <path d="M -3.79853 1.38076 L 0.00701 9.51307 L 3.79853 8.14097" />
    <path d="M -2.05 -4.76087 L -2.05 0" />
    <path d="M 2.05 -4.76087 L 2.05 0" />
</svg>